<svg id="Layer_1" enable-background="new 0 0 510.033 510.033" height="512" viewBox="0 0 510.033 510.033" width="512" xmlns="http://www.w3.org/2000/svg"><g id="XMLID_574_"><path id="XMLID_585_" d="m150 151.864v186.939l128.774-128.774c-36.365-32.167-80.939-52.237-128.774-58.165z"/><path id="XMLID_592_" d="m358.152 360.017c-5.928-47.835-25.998-92.409-58.165-128.774l-128.774 128.774z"/><path id="XMLID_595_" d="m299.987 231.242 91.782-91.782c25.114 28.715 42.637 64.23 49.388 103.391l-17.109-15.216-19.936 22.418 55.744 49.573 50.177-50.176-21.213-21.213-16.917 16.916c-6.563-47.203-26.807-91.119-58.793-127.034l62.496-62.496-21.212-21.213-62.559 62.558c-35.717-31.443-79.232-51.356-125.972-57.855l16.916-16.916-21.213-21.214-50.176 50.177 49.574 55.745 22.418-19.938-15.216-17.109c38.675 6.668 73.799 23.838 102.324 48.455l-91.716 91.716c7.476 6.612 14.567 13.698 21.213 21.213z"/><path id="XMLID_596_" d="m120 .017h-120v75h75v30h-75v30h60v30h-60v30h75v30h-75v30h60v30h-60v30h75v30h-75v30h60v30h-60v105h105v-60h30v60h30v-75h30v75h30v-60h30v60h30v-75h30v75h30v-60h30v60h30v-75h30v75h75v-120h-390z"/></g></svg>