<svg height="512pt" viewBox="0 0 512 512" width="512pt" xmlns="http://www.w3.org/2000/svg"><path d="m75 301c18.472656 0 36.226562-6.78125 49.996094-19.085938l50.007812-44.738281c3.179688-2.839843 4.996094-6.914062 4.996094-11.175781s-1.816406-8.335938-4.996094-11.175781l-50.023437-44.738281c-13.753907-12.304688-31.507813-19.085938-49.980469-19.085938-41.351562 0-75 33.648438-75 75s33.648438 75 75 75zm0-90c8.285156 0 15 6.714844 15 15s-6.714844 15-15 15-15-6.714844-15-15 6.714844-15 15-15zm0 0"/><path d="m435 60h-345v-45c0-8.289062-6.710938-15-15-15s-15 6.710938-15 15v107.515625c4.941406-.714844 9.863281-1.515625 15-1.515625 25.855469 0 50.714844 9.492188 69.976562 26.734375l50.023438 44.71875 16.582031-33.164063c2.636719-5.269531 7.410157-9.007812 14.046875-8.273437 5.890625.25 11.105469 3.925781 13.300782 9.417969l44.796874 111.972656 47.050782-141.152344c4.070312-12.246094 24.375-12.246094 28.445312 0l45.777344 137.3125 15.777344-47.3125c2.035156-6.121094 7.761718-10.253906 14.222656-10.253906h77v-75c0-41.351562-35.648438-76-77-76zm0 0"/><path d="m419.222656 320.746094c-2.035156 6.121094-7.761718 10.253906-14.222656 10.253906s-12.1875-4.132812-14.222656-10.253906l-45.777344-137.3125-45.777344 137.3125c-1.976562 5.960937-7.484375 10.0625-13.78125 10.253906-6.578125.25-12.042968-3.589844-14.371094-9.433594l-47.59375-118.976562-13.953124 27.914062c-1.132813 11.105469-6.125 21.53125-14.523438 29.039063l-50.007812 44.722656c-19.292969 17.242187-44.136719 26.734375-69.992188 26.734375-5.136719 0-10.058594-.800781-15-1.515625v137.515625c0 8.289062 6.710938 15 15 15s15-6.710938 15-15v-75h377c16.949219 0 32.425781 5.863281 45 15.382812v-166.382812h-66.1875zm0 0"/><path d="m467 422h-47v75c0 8.285156 6.714844 15 15 15h32c24.851562 0 45-20.148438 45-45s-20.148438-45-45-45zm0 0"/></svg>