<svg xmlns="http://www.w3.org/2000/svg" height="513pt" version="1.1" viewBox="0 -1 513.82081 513" width="513pt">
<g id="surface1">
<path d="M 21.421875 254.808594 L 64.089844 254.808594 L 64.089844 380.675781 L 91.824219 338.011719 C 100.355469 325.210938 113.15625 318.808594 128.089844 318.808594 L 130.222656 318.808594 C 145.15625 318.808594 157.957031 329.476562 166.488281 342.277344 L 192.089844 393.476562 L 239.023438 299.609375 C 245.421875 284.675781 260.355469 276.144531 277.421875 276.144531 L 279.554688 276.144531 C 296.625 276.144531 309.421875 286.808594 315.824219 301.742188 L 343.554688 365.742188 L 345.691406 363.609375 C 356.355469 342.277344 384.089844 333.742188 405.421875 346.542969 C 411.824219 350.808594 418.222656 357.210938 422.488281 363.609375 L 433.15625 382.808594 L 450.222656 382.808594 L 450.222656 254.808594 L 492.890625 254.808594 C 512.089844 254.808594 520.625 231.34375 507.824219 218.542969 L 273.15625 5.210938 C 264.625 -1.191406 251.824219 -1.191406 245.421875 5.210938 L 10.757812 218.542969 C -6.308594 231.34375 2.222656 254.808594 21.421875 254.808594 Z M 277.421875 148.144531 L 320.089844 148.144531 L 320.089844 190.808594 L 277.421875 190.808594 Z M 277.421875 212.144531 L 320.089844 212.144531 L 320.089844 254.808594 L 277.421875 254.808594 Z M 192.089844 148.144531 L 234.757812 148.144531 L 234.757812 190.808594 L 192.089844 190.808594 Z M 192.089844 212.144531 L 234.757812 212.144531 L 234.757812 254.808594 L 192.089844 254.808594 Z M 192.089844 212.144531 " style=" stroke:none;fill-rule:nonzero;fill-opacity:1;" />
<path d="M 418.222656 404.144531 L 403.289062 372.144531 C 394.757812 357.210938 373.421875 357.210938 364.890625 372.144531 L 343.554688 416.941406 L 296.625 310.277344 C 290.222656 295.34375 266.757812 293.210938 258.222656 308.144531 L 192.089844 442.542969 L 147.289062 352.941406 C 140.890625 338.011719 119.554688 338.011719 111.023438 350.808594 L 74.757812 404.144531 L 0.0898438 404.144531 L 0.0898438 446.808594 L 85.421875 446.808594 C 91.824219 446.808594 98.222656 442.542969 102.488281 438.277344 L 123.824219 404.144531 L 170.757812 500.144531 C 177.15625 510.808594 189.957031 515.078125 200.625 508.675781 C 204.890625 506.542969 207.023438 504.410156 209.15625 500.144531 L 273.15625 370.011719 L 320.089844 476.675781 C 326.488281 491.609375 349.957031 493.742188 358.488281 478.808594 L 381.957031 431.875 L 384.089844 436.144531 C 388.355469 442.542969 394.757812 446.808594 403.289062 448.941406 L 509.957031 451.078125 L 509.957031 408.410156 Z M 418.222656 404.144531 " style=" stroke:none;fill-rule:nonzero;fill-opacity:1;" />
</g>
</svg>
